<svg width="58" height="47" viewBox="0 0 58 47" fill="none" xmlns="http://www.w3.org/2000/svg">
<path d="M12.1572 23.3366C12.1572 20.4782 12.1572 19.049 12.8246 17.7928C13.4919 16.5365 14.7451 15.6064 17.2516 13.7462L19.683 11.9417C24.2135 8.57946 26.4787 6.89832 29.177 6.89832C31.8753 6.89832 34.1406 8.57946 38.6711 11.9417L41.1025 13.7462C43.609 15.6064 44.8622 16.5365 45.5295 17.7928C46.1969 19.049 46.1969 20.4782 46.1969 23.3366V32.2635C46.1969 36.2331 46.1969 38.2179 44.7726 39.4511C43.3483 40.6843 41.0559 40.6843 36.4712 40.6843H21.8828C17.2981 40.6843 15.0058 40.6843 13.5815 39.4511C12.1572 38.2179 12.1572 36.2331 12.1572 32.2635V23.3366Z" stroke="#222222"/>
<path d="M35.2552 40.6844V29.0532C35.2552 28.5009 34.8074 28.0532 34.2552 28.0532H24.0981C23.5459 28.0532 23.0981 28.5009 23.0981 29.0532V40.6844" stroke="#222222" stroke-linecap="round" stroke-linejoin="round"/>
</svg>
